<svg width="216" height="102" viewBox="0 0 216 102" fill="none" xmlns="http://www.w3.org/2000/svg">
<rect width="216" height="102" fill="#23164B"/>
<path d="M38.004 60.392C35.1107 60.392 32.852 59.5987 31.228 58.012C29.604 56.4253 28.792 54.176 28.792 51.264V40.4H34.336V51.096C34.336 52.776 34.6627 53.98 35.316 54.708C35.988 55.436 36.9027 55.8 38.06 55.8C39.2173 55.8 40.1227 55.436 40.776 54.708C41.4293 53.98 41.756 52.776 41.756 51.096V40.4H47.216V51.264C47.216 54.176 46.404 56.4253 44.78 58.012C43.156 59.5987 40.8973 60.392 38.004 60.392ZM60.6037 44.572C61.7797 44.572 62.8437 44.8147 63.7957 45.3C64.7477 45.7667 65.4944 46.4947 66.0357 47.484C66.5957 48.4733 66.8757 49.752 66.8757 51.32V60H61.5557V52.188C61.5557 51.1053 61.3317 50.3213 60.8837 49.836C60.4544 49.332 59.8477 49.08 59.0637 49.08C58.5037 49.08 57.9904 49.2107 57.5237 49.472C57.0571 49.7147 56.6931 50.0973 56.4317 50.62C56.1704 51.1427 56.0397 51.824 56.0397 52.664V60H50.7197V44.824H55.7877V49.136L54.8077 47.876C55.3864 46.7747 56.1797 45.9533 57.1877 45.412C58.1957 44.852 59.3344 44.572 60.6037 44.572ZM75.3118 60L68.9558 40.4H74.6678L80.0158 57.368H77.1318L82.7598 40.4H87.8558L93.1758 57.368H90.4038L95.9198 40.4H101.212L94.8558 60H88.9198L84.3838 45.58H85.9798L81.2478 60H75.3118ZM111.093 60V57.172L110.729 56.472V51.264C110.729 50.424 110.468 49.78 109.945 49.332C109.441 48.8653 108.629 48.632 107.509 48.632C106.781 48.632 106.044 48.7533 105.297 48.996C104.551 49.22 103.916 49.5373 103.393 49.948L101.601 46.336C102.46 45.776 103.487 45.3467 104.681 45.048C105.895 44.7307 107.099 44.572 108.293 44.572C110.757 44.572 112.661 45.1413 114.005 46.28C115.368 47.4 116.049 49.164 116.049 51.572V60H111.093ZM106.613 60.252C105.4 60.252 104.373 60.0467 103.533 59.636C102.693 59.2253 102.049 58.6653 101.601 57.956C101.172 57.2467 100.957 56.4533 100.957 55.576C100.957 54.6427 101.191 53.84 101.657 53.168C102.143 52.4773 102.88 51.9547 103.869 51.6C104.859 51.2267 106.137 51.04 107.705 51.04H111.289V53.812H108.433C107.575 53.812 106.968 53.952 106.613 54.232C106.277 54.512 106.109 54.8853 106.109 55.352C106.109 55.8187 106.287 56.192 106.641 56.472C106.996 56.752 107.481 56.892 108.097 56.892C108.676 56.892 109.199 56.752 109.665 56.472C110.151 56.1733 110.505 55.7253 110.729 55.128L111.457 57.088C111.177 58.1333 110.627 58.9267 109.805 59.468C109.003 59.9907 107.939 60.252 106.613 60.252ZM129.291 44.572C130.467 44.572 131.531 44.8147 132.483 45.3C133.435 45.7667 134.182 46.4947 134.723 47.484C135.283 48.4733 135.563 49.752 135.563 51.32V60H130.243V52.188C130.243 51.1053 130.019 50.3213 129.571 49.836C129.142 49.332 128.535 49.08 127.751 49.08C127.191 49.08 126.678 49.2107 126.211 49.472C125.745 49.7147 125.381 50.0973 125.119 50.62C124.858 51.1427 124.727 51.824 124.727 52.664V60H119.407V44.824H124.475V49.136L123.495 47.876C124.074 46.7747 124.867 45.9533 125.875 45.412C126.883 44.852 128.022 44.572 129.291 44.572ZM145.679 60.252C143.738 60.252 142.226 59.776 141.143 58.824C140.061 57.8533 139.519 56.3973 139.519 54.456V41.436H144.839V54.4C144.839 54.9413 144.989 55.3707 145.287 55.688C145.586 55.9867 145.969 56.136 146.435 56.136C147.07 56.136 147.611 55.9773 148.059 55.66L149.375 59.384C148.927 59.6827 148.377 59.8973 147.723 60.028C147.07 60.1773 146.389 60.252 145.679 60.252ZM137.307 49.36V45.384H148.311V49.36H137.307ZM158.941 60.252C157.149 60.252 155.581 59.916 154.237 59.244C152.912 58.5533 151.876 57.62 151.129 56.444C150.401 55.2493 150.037 53.896 150.037 52.384C150.037 50.872 150.392 49.528 151.101 48.352C151.829 47.1573 152.828 46.2333 154.097 45.58C155.367 44.908 156.795 44.572 158.381 44.572C159.875 44.572 161.237 44.88 162.469 45.496C163.701 46.0933 164.681 46.98 165.409 48.156C166.137 49.332 166.501 50.76 166.501 52.44C166.501 52.6267 166.492 52.8413 166.473 53.084C166.455 53.3267 166.436 53.5507 166.417 53.756H154.405V50.956H163.589L161.573 51.74C161.592 51.0493 161.461 50.452 161.181 49.948C160.92 49.444 160.547 49.052 160.061 48.772C159.595 48.492 159.044 48.352 158.409 48.352C157.775 48.352 157.215 48.492 156.729 48.772C156.263 49.052 155.899 49.4533 155.637 49.976C155.376 50.48 155.245 51.0773 155.245 51.768V52.58C155.245 53.3267 155.395 53.9707 155.693 54.512C156.011 55.0533 156.459 55.4733 157.037 55.772C157.616 56.052 158.307 56.192 159.109 56.192C159.856 56.192 160.491 56.0893 161.013 55.884C161.555 55.66 162.087 55.324 162.609 54.876L165.409 57.788C164.681 58.5907 163.785 59.2067 162.721 59.636C161.657 60.0467 160.397 60.252 158.941 60.252ZM175.562 60.252C174.181 60.252 172.921 59.9347 171.782 59.3C170.662 58.6467 169.766 57.7413 169.094 56.584C168.422 55.408 168.086 54.008 168.086 52.384C168.086 50.7787 168.422 49.3973 169.094 48.24C169.766 47.064 170.662 46.1587 171.782 45.524C172.921 44.8893 174.181 44.572 175.562 44.572C176.869 44.572 177.97 44.852 178.866 45.412C179.781 45.972 180.471 46.8307 180.938 47.988C181.405 49.1453 181.638 50.6107 181.638 52.384C181.638 54.1947 181.414 55.6787 180.966 56.836C180.518 57.9933 179.846 58.852 178.95 59.412C178.054 59.972 176.925 60.252 175.562 60.252ZM176.682 56.024C177.279 56.024 177.811 55.884 178.278 55.604C178.763 55.324 179.146 54.9133 179.426 54.372C179.706 53.812 179.846 53.1493 179.846 52.384C179.846 51.6187 179.706 50.9747 179.426 50.452C179.146 49.9107 178.763 49.5 178.278 49.22C177.811 48.94 177.279 48.8 176.682 48.8C176.066 48.8 175.515 48.94 175.03 49.22C174.563 49.5 174.19 49.9107 173.91 50.452C173.63 50.9747 173.49 51.6187 173.49 52.384C173.49 53.1493 173.63 53.812 173.91 54.372C174.19 54.9133 174.563 55.324 175.03 55.604C175.515 55.884 176.066 56.024 176.682 56.024ZM180.014 60V57.396L180.042 52.384L179.762 47.372V39.224H185.082V60H180.014Z" fill="white"/>
</svg>
