<svg width="158" height="22" viewBox="0 0 158 22" fill="none" xmlns="http://www.w3.org/2000/svg">
<path d="M10.004 21.392C7.11067 21.392 4.852 20.5987 3.228 19.012C1.604 17.4253 0.792 15.176 0.792 12.264V1.4H6.336V12.096C6.336 13.776 6.66267 14.98 7.316 15.708C7.988 16.436 8.90267 16.8 10.06 16.8C11.2173 16.8 12.1227 16.436 12.776 15.708C13.4293 14.98 13.756 13.776 13.756 12.096V1.4H19.216V12.264C19.216 15.176 18.404 17.4253 16.78 19.012C15.156 20.5987 12.8973 21.392 10.004 21.392ZM32.6037 5.572C33.7797 5.572 34.8437 5.81467 35.7957 6.3C36.7477 6.76667 37.4944 7.49467 38.0357 8.484C38.5957 9.47333 38.8757 10.752 38.8757 12.32V21H33.5557V13.188C33.5557 12.1053 33.3317 11.3213 32.8837 10.836C32.4544 10.332 31.8477 10.08 31.0637 10.08C30.5037 10.08 29.9904 10.2107 29.5237 10.472C29.0571 10.7147 28.6931 11.0973 28.4317 11.62C28.1704 12.1427 28.0397 12.824 28.0397 13.664V21H22.7197V5.824H27.7877V10.136L26.8077 8.876C27.3864 7.77467 28.1797 6.95333 29.1877 6.412C30.1957 5.852 31.3344 5.572 32.6037 5.572ZM47.3118 21L40.9558 1.4H46.6678L52.0158 18.368H49.1318L54.7598 1.4H59.8558L65.1758 18.368H62.4038L67.9198 1.4H73.2118L66.8558 21H60.9198L56.3838 6.58H57.9798L53.2478 21H47.3118ZM83.0932 21V18.172L82.7292 17.472V12.264C82.7292 11.424 82.4679 10.78 81.9452 10.332C81.4412 9.86533 80.6292 9.632 79.5092 9.632C78.7812 9.632 78.0439 9.75333 77.2972 9.996C76.5505 10.22 75.9159 10.5373 75.3932 10.948L73.6012 7.336C74.4599 6.776 75.4865 6.34667 76.6812 6.048C77.8945 5.73067 79.0985 5.572 80.2932 5.572C82.7572 5.572 84.6612 6.14133 86.0052 7.28C87.3679 8.4 88.0492 10.164 88.0492 12.572V21H83.0932ZM78.6132 21.252C77.3999 21.252 76.3732 21.0467 75.5332 20.636C74.6932 20.2253 74.0492 19.6653 73.6012 18.956C73.1719 18.2467 72.9572 17.4533 72.9572 16.576C72.9572 15.6427 73.1905 14.84 73.6572 14.168C74.1425 13.4773 74.8799 12.9547 75.8692 12.6C76.8585 12.2267 78.1372 12.04 79.7052 12.04H83.2892V14.812H80.4332C79.5745 14.812 78.9679 14.952 78.6132 15.232C78.2772 15.512 78.1092 15.8853 78.1092 16.352C78.1092 16.8187 78.2865 17.192 78.6412 17.472C78.9959 17.752 79.4812 17.892 80.0972 17.892C80.6759 17.892 81.1985 17.752 81.6652 17.472C82.1505 17.1733 82.5052 16.7253 82.7292 16.128L83.4572 18.088C83.1772 19.1333 82.6265 19.9267 81.8052 20.468C81.0025 20.9907 79.9385 21.252 78.6132 21.252ZM101.291 5.572C102.467 5.572 103.531 5.81467 104.483 6.3C105.435 6.76667 106.182 7.49467 106.723 8.484C107.283 9.47333 107.563 10.752 107.563 12.32V21H102.243V13.188C102.243 12.1053 102.019 11.3213 101.571 10.836C101.142 10.332 100.535 10.08 99.7512 10.08C99.1912 10.08 98.6779 10.2107 98.2112 10.472C97.7446 10.7147 97.3806 11.0973 97.1192 11.62C96.8579 12.1427 96.7272 12.824 96.7272 13.664V21H91.4072V5.824H96.4752V10.136L95.4952 8.876C96.0739 7.77467 96.8672 6.95333 97.8752 6.412C98.8832 5.852 100.022 5.572 101.291 5.572ZM117.679 21.252C115.738 21.252 114.226 20.776 113.143 19.824C112.061 18.8533 111.519 17.3973 111.519 15.456V2.436H116.839V15.4C116.839 15.9413 116.989 16.3707 117.287 16.688C117.586 16.9867 117.969 17.136 118.435 17.136C119.07 17.136 119.611 16.9773 120.059 16.66L121.375 20.384C120.927 20.6827 120.377 20.8973 119.723 21.028C119.07 21.1773 118.389 21.252 117.679 21.252ZM109.307 10.36V6.384H120.311V10.36H109.307ZM130.941 21.252C129.149 21.252 127.581 20.916 126.237 20.244C124.912 19.5533 123.876 18.62 123.129 17.444C122.401 16.2493 122.037 14.896 122.037 13.384C122.037 11.872 122.392 10.528 123.101 9.352C123.829 8.15733 124.828 7.23333 126.097 6.58C127.367 5.908 128.795 5.572 130.381 5.572C131.875 5.572 133.237 5.88 134.469 6.496C135.701 7.09333 136.681 7.98 137.409 9.156C138.137 10.332 138.501 11.76 138.501 13.44C138.501 13.6267 138.492 13.8413 138.473 14.084C138.455 14.3267 138.436 14.5507 138.417 14.756H126.405V11.956H135.589L133.573 12.74C133.592 12.0493 133.461 11.452 133.181 10.948C132.92 10.444 132.547 10.052 132.061 9.772C131.595 9.492 131.044 9.352 130.409 9.352C129.775 9.352 129.215 9.492 128.729 9.772C128.263 10.052 127.899 10.4533 127.637 10.976C127.376 11.48 127.245 12.0773 127.245 12.768V13.58C127.245 14.3267 127.395 14.9707 127.693 15.512C128.011 16.0533 128.459 16.4733 129.037 16.772C129.616 17.052 130.307 17.192 131.109 17.192C131.856 17.192 132.491 17.0893 133.013 16.884C133.555 16.66 134.087 16.324 134.609 15.876L137.409 18.788C136.681 19.5907 135.785 20.2067 134.721 20.636C133.657 21.0467 132.397 21.252 130.941 21.252ZM147.562 21.252C146.181 21.252 144.921 20.9347 143.782 20.3C142.662 19.6467 141.766 18.7413 141.094 17.584C140.422 16.408 140.086 15.008 140.086 13.384C140.086 11.7787 140.422 10.3973 141.094 9.24C141.766 8.064 142.662 7.15867 143.782 6.524C144.921 5.88933 146.181 5.572 147.562 5.572C148.869 5.572 149.97 5.852 150.866 6.412C151.781 6.972 152.471 7.83067 152.938 8.988C153.405 10.1453 153.638 11.6107 153.638 13.384C153.638 15.1947 153.414 16.6787 152.966 17.836C152.518 18.9933 151.846 19.852 150.95 20.412C150.054 20.972 148.925 21.252 147.562 21.252ZM148.682 17.024C149.279 17.024 149.811 16.884 150.278 16.604C150.763 16.324 151.146 15.9133 151.426 15.372C151.706 14.812 151.846 14.1493 151.846 13.384C151.846 12.6187 151.706 11.9747 151.426 11.452C151.146 10.9107 150.763 10.5 150.278 10.22C149.811 9.94 149.279 9.8 148.682 9.8C148.066 9.8 147.515 9.94 147.03 10.22C146.563 10.5 146.19 10.9107 145.91 11.452C145.63 11.9747 145.49 12.6187 145.49 13.384C145.49 14.1493 145.63 14.812 145.91 15.372C146.19 15.9133 146.563 16.324 147.03 16.604C147.515 16.884 148.066 17.024 148.682 17.024ZM152.014 21V18.396L152.042 13.384L151.762 8.372V0.223999H157.082V21H152.014Z" fill="white"/>
</svg>
